<svg width="285" height="227" viewBox="0 0 285 227" fill="none" xmlns="http://www.w3.org/2000/svg">
<g clip-path="url(#clip0_23_99)">
<path d="M120.846 218.089C121.889 218.155 122.465 216.858 121.676 216.102L121.598 215.79C121.608 215.765 121.618 215.74 121.629 215.715C122.684 213.197 126.259 213.215 127.305 215.736C128.233 217.973 129.415 220.214 129.706 222.58C129.836 223.624 129.778 224.688 129.546 225.713C131.721 220.958 132.866 215.766 132.866 210.544C132.866 209.232 132.794 207.921 132.647 206.612C132.527 205.541 132.36 204.478 132.145 203.423C130.981 197.725 128.46 192.298 124.824 187.765C123.076 186.809 121.618 185.314 120.738 183.523C120.422 182.877 120.174 182.182 120.056 181.473C120.255 181.5 120.806 178.468 120.656 178.282C120.934 177.861 121.43 177.651 121.733 177.241C123.238 175.198 125.313 175.554 126.396 178.331C128.709 179.499 128.732 181.437 127.312 183.301C126.409 184.487 126.285 186.091 125.493 187.361C125.574 187.465 125.659 187.566 125.74 187.671C127.235 189.59 128.528 191.652 129.619 193.819C129.31 191.411 129.765 188.51 130.541 186.64C131.423 184.509 133.078 182.714 134.535 180.872C136.285 178.659 139.873 179.625 140.182 182.43C140.184 182.457 140.187 182.484 140.19 182.511C139.974 182.633 139.762 182.763 139.555 182.9C138.374 183.682 138.782 185.514 140.181 185.731L140.213 185.735C140.135 186.515 140.001 187.289 139.805 188.049C141.674 195.283 137.639 197.917 131.878 198.036C131.751 198.101 131.627 198.166 131.499 198.228C132.083 199.873 132.55 201.56 132.895 203.27C133.205 204.781 133.42 206.308 133.541 207.842C133.691 209.777 133.678 211.722 133.515 213.654L133.525 213.586C133.939 211.458 135.093 209.471 136.769 208.094C139.266 206.041 142.794 205.285 145.488 203.635C146.785 202.841 148.447 203.867 148.22 205.372L148.209 205.444C147.808 205.607 147.417 205.796 147.039 206.008C146.822 206.13 146.61 206.26 146.403 206.397C145.222 207.179 145.63 209.011 147.03 209.228L147.061 209.232C147.084 209.236 147.104 209.239 147.127 209.242C146.438 210.877 145.48 212.395 144.28 213.703C143.111 220.018 138.092 220.617 132.722 218.778H132.719C132.132 221.337 131.274 223.836 130.172 226.219H121.074C121.041 226.118 121.012 226.013 120.982 225.912C121.824 225.964 122.672 225.915 123.5 225.762C122.825 224.933 122.15 224.098 121.475 223.269C121.459 223.252 121.446 223.236 121.432 223.22C121.09 222.795 120.744 222.374 120.402 221.95L120.402 221.95C120.38 220.647 120.537 219.349 120.846 218.089Z" fill="#F2F2F2"/>
<path d="M0 226.399C0 226.732 0.267612 227 0.600862 227H204.222C204.555 227 204.823 226.732 204.823 226.399C204.823 226.065 204.555 225.797 204.222 225.797H0.600862C0.267612 225.797 0 226.065 0 226.399Z" fill="#CCCCCC"/>
<path d="M275.041 226.866H170.753C165.262 226.866 160.794 222.395 160.794 216.9V9.96624C160.794 4.47094 165.262 0 170.753 0H275.041C280.532 0 285 4.47094 285 9.96624V216.9C285 222.395 280.532 226.866 275.041 226.866ZM170.753 1.01054C165.811 1.01054 161.804 5.02003 161.804 9.96599V216.9C161.804 221.846 165.811 225.855 170.753 225.855H275.041C279.984 225.855 283.99 221.846 283.99 216.9V76.1465C283.99 34.6501 250.375 1.01054 208.909 1.01054H170.753Z" fill="white"/>
<path d="M190.415 102.124C197.108 102.124 202.533 96.6948 202.533 89.9976C202.533 83.3003 197.108 77.8711 190.415 77.8711C183.723 77.8711 178.298 83.3003 178.298 89.9976C178.298 96.6948 183.723 102.124 190.415 102.124Z" fill="white"/>
<path d="M255.379 102.124C262.071 102.124 267.497 96.6948 267.497 89.9976C267.497 83.3003 262.071 77.8711 255.379 77.8711C248.687 77.8711 243.261 83.3003 243.261 89.9976C243.261 96.6948 248.687 102.124 255.379 102.124Z" fill="white"/>
<path d="M222.897 102.124C229.589 102.124 235.015 96.6948 235.015 89.9976C235.015 83.3003 229.589 77.8711 222.897 77.8711C216.205 77.8711 210.78 83.3003 210.78 89.9976C210.78 96.6948 216.205 102.124 222.897 102.124Z" fill="white"/>
<path d="M190.415 136.988C197.108 136.988 202.533 131.559 202.533 124.861C202.533 118.164 197.108 112.735 190.415 112.735C183.723 112.735 178.298 118.164 178.298 124.861C178.298 131.559 183.723 136.988 190.415 136.988Z" fill="white"/>
<path d="M255.379 136.988C262.071 136.988 267.497 131.559 267.497 124.861C267.497 118.164 262.071 112.735 255.379 112.735C248.687 112.735 243.261 118.164 243.261 124.861C243.261 131.559 248.687 136.988 255.379 136.988Z" fill="white"/>
<path d="M222.897 136.988C229.589 136.988 235.015 131.559 235.015 124.861C235.015 118.164 229.589 112.735 222.897 112.735C216.205 112.735 210.78 118.164 210.78 124.861C210.78 131.559 216.205 136.988 222.897 136.988Z" fill="white"/>
<path d="M190.415 171.851C197.108 171.851 202.533 166.422 202.533 159.725C202.533 153.028 197.108 147.598 190.415 147.598C183.723 147.598 178.298 153.028 178.298 159.725C178.298 166.422 183.723 171.851 190.415 171.851Z" fill="white"/>
<path d="M255.131 206.655C261.824 206.655 267.249 201.226 267.249 194.529C267.249 187.832 261.824 182.402 255.131 182.402C248.439 182.402 243.014 187.832 243.014 194.529C243.014 201.226 248.439 206.655 255.131 206.655Z" fill="white"/>
<path d="M206.913 206.655C222.668 206.655 235.44 201.226 235.44 194.529C235.44 187.832 222.668 182.402 206.913 182.402C191.158 182.402 178.386 187.832 178.386 194.529C178.386 201.226 191.158 206.655 206.913 206.655Z" fill="white"/>
<path d="M255.379 171.851C262.071 171.851 267.497 166.422 267.497 159.725C267.497 153.028 262.071 147.598 255.379 147.598C248.687 147.598 243.261 153.028 243.261 159.725C243.261 166.422 248.687 171.851 255.379 171.851Z" fill="white"/>
<path d="M222.897 171.851C229.589 171.851 235.015 166.422 235.015 159.725C235.015 153.028 229.589 147.598 222.897 147.598C216.205 147.598 210.78 153.028 210.78 159.725C210.78 166.422 216.205 171.851 222.897 171.851Z" fill="#D0202E"/>
<path d="M225.278 14.1475H109.387C105.95 14.1475 103.156 16.9438 103.156 20.3827V62.9866C103.156 66.4255 105.95 69.2218 109.387 69.2218H225.278C228.715 69.2218 231.509 66.4255 231.509 62.9866V20.3827C231.509 16.9438 228.715 14.1475 225.278 14.1475Z" fill="white"/>
<path d="M225.278 14.1475H109.387C105.95 14.1475 103.156 16.9438 103.156 20.3827V62.9866C103.156 66.4255 105.95 69.2218 109.387 69.2218H225.278C228.715 69.2218 231.509 66.4255 231.509 62.9866V20.3827C231.509 16.9438 228.715 14.1475 225.278 14.1475ZM230.854 62.9866C230.854 66.0649 228.354 68.5662 225.278 68.5662H109.387C106.311 68.5662 103.811 66.0649 103.811 62.9866V20.3827C103.811 17.3044 106.311 14.8031 109.387 14.8031H225.278C228.354 14.8031 230.854 17.3044 230.854 20.3827V62.9866Z" fill="#3F3D56"/>
<path d="M218.832 39.9163H115.833C114.857 39.9163 114.066 40.708 114.066 41.6847C114.066 42.6614 114.857 43.4531 115.833 43.4531H218.832C219.808 43.4531 220.6 42.6614 220.6 41.6847C220.6 40.708 219.808 39.9163 218.832 39.9163Z" fill="#D0202E"/>
<path d="M34.309 91.1611L33.2768 97.3126L42.431 119.597L47.3425 117.07L42.5621 96.2165L41.875 88.2581L34.309 91.1611Z" fill="#A0616A"/>
<path d="M44.4141 56.5539C44.4141 56.5539 39.6213 54.2305 35.9022 62.081C32.1831 69.9315 32.6437 87.1496 32.6437 87.1496C32.6437 87.1496 31.2895 88.44 32.1491 89.3435C33.0088 90.2469 33.8102 91.6807 32.9333 93.3335C32.4711 94.2045 31.4014 95.9087 33.1531 96.3928C34.9048 96.8769 43.0986 94.5899 43.0986 94.5899C43.0986 94.5899 46.1625 93.2164 44.4216 92.2913C42.6807 91.3663 45.1326 85.7706 45.1326 85.7706L47.1585 69.6063L44.4141 56.5539Z" fill="#D0202E"/>
<path d="M48.1774 128.111C50.1011 127.52 50.8541 124.412 49.8592 121.17C48.8642 117.927 46.4981 115.778 44.5744 116.369C42.6506 116.96 41.8977 120.068 42.8926 123.311C43.8875 126.553 46.2536 128.702 48.1774 128.111Z" fill="#A0616A"/>
<path d="M93.5468 223.617L98.1345 222.384L95.5686 204.09L88.7976 205.908L93.5468 223.617Z" fill="#A0616A"/>
<path d="M109.237 219.292C109.445 219.494 109.728 220.251 109.803 220.531C110.034 221.392 109.524 222.277 108.664 222.508L94.4563 226.323C93.8696 226.48 93.2664 226.132 93.109 225.545L92.9503 224.953C92.9503 224.953 91.7704 223.363 92.6295 220.781C92.6295 220.781 94.8884 222.015 96.8546 218.604L97.2619 216.955L104.124 219.613L107.409 219.151C108.127 219.05 108.718 218.785 109.237 219.292Z" fill="#2F2E41"/>
<path d="M48.5771 223.511L53.3272 223.511L55.5868 205.176L48.5762 205.176L48.5771 223.511Z" fill="#A0616A"/>
<path d="M64.8514 223.403C64.9993 223.653 65.0774 224.457 65.0774 224.747C65.0774 225.638 64.3556 226.36 63.4652 226.36H48.7548C48.1474 226.36 47.655 225.868 47.655 225.26V224.647C47.655 224.647 46.9272 222.805 48.4255 220.534C48.4255 220.534 50.2876 222.312 53.07 219.528L53.8906 218.04L59.83 222.387L63.1221 222.793C63.8424 222.881 64.4809 222.779 64.8514 223.403Z" fill="#2F2E41"/>
<path d="M80.1897 114.294L92.6802 168.172L98.7102 211.706L89.2346 212.999L62.9613 138.863L56.9314 212.999L46.1636 213.861C46.1636 213.861 37.5495 125.932 41.4258 115.156L80.1897 114.294Z" fill="#2F2E41"/>
<path d="M95.0573 50.5848L99.3669 46.0784L104.316 22.4991L98.8346 21.8254L91.0723 41.7607L87.1693 48.7288L95.0573 50.5848Z" fill="#A0616A"/>
<path d="M67.2578 73.5193C67.2578 73.5193 71.2911 80.9616 78.7772 76.5618C86.2634 72.162 94.1807 54.8394 94.1807 54.8394C94.1807 54.8394 95.7617 50.4359 97.4154 49.5624C98.287 49.1021 100.53 48.6057 99.3531 47.2198C98.1765 45.8339 89.7147 42.8041 89.7147 42.8041C89.7147 42.8041 86.4092 42.2161 87.3292 43.9606C88.2492 45.7051 85.2277 44.6244 85.5327 46.4707C85.8377 48.3169 83.0779 48.9531 83.0779 48.9531L67.2578 73.5193Z" fill="#D0202E"/>
<path d="M106.021 19.1684C107.019 15.9272 106.27 12.8185 104.347 12.2251C102.424 11.6316 100.055 13.778 99.0565 17.0192C98.0577 20.2604 98.807 23.369 100.73 23.9625C102.653 24.556 105.022 22.4096 106.021 19.1684Z" fill="#A0616A"/>
<path d="M67.7933 47.7344H56.0007L55.5234 51.4552C55.5234 51.4552 40.6509 55.5482 41.0227 57.7807C41.3945 60.0132 43.6254 97.2217 43.6254 97.2217L41.7663 115.826C41.7663 115.826 75.2296 129.965 80.4349 113.221L77.8323 93.8729C77.8323 93.8729 84.1531 60.7574 82.6658 59.269C81.1786 57.7807 68.9087 51.8273 68.9087 51.8273L67.7933 47.7344Z" fill="#D0202E"/>
<path d="M60.9433 47.7809C66.7891 47.7809 71.5281 43.0385 71.5281 37.1884C71.5281 31.3384 66.7891 26.5959 60.9433 26.5959C55.0976 26.5959 50.3586 31.3384 50.3586 37.1884C50.3586 43.0385 55.0976 47.7809 60.9433 47.7809Z" fill="#A0616A"/>
<path d="M68.7823 32.8313C70.1347 32.7169 71.4871 32.6024 72.8394 32.4881C72.3746 32.2747 71.8904 32.0463 71.5807 31.639C71.271 31.2317 71.2069 30.5882 71.5811 30.2393C72.0183 29.8315 72.7424 30.0475 73.2202 30.4067C72.9571 29.0319 72.1372 27.7723 70.9868 26.9759C69.5816 26.0031 66.1054 27.1631 64.4114 26.9398C62.4567 26.6821 62.2128 25.0144 60.2582 24.7567C59.5215 24.6596 58.6924 24.5864 58.1131 25.0521C57.4705 25.5687 57.3984 26.5453 56.8315 27.144C56.0221 27.9988 54.6349 27.7466 53.483 27.9871C51.8515 28.3278 50.6217 29.7594 50.0536 31.3274C49.4856 32.8954 49.4647 34.6008 49.4502 36.2687C49.434 38.1378 49.4281 40.3016 50.779 41.5926C51.602 42.3791 53.8439 45.0775 54.0862 46.1902C54.2583 46.9805 61.2728 47.943 62.7931 47.8992L67.9749 46.1902C68.4841 43.9462 67.6417 39.5069 66.431 37.5504C66.8297 38.0775 68.6736 39.6641 68.9555 39.0663C69.2373 38.4684 69.1095 36.5946 69.4604 36.0346C69.9033 35.3278 67.9516 32.9015 68.7823 32.8313Z" fill="#2F2E41"/>
</g>
<defs>
<clipPath id="clip0_23_99">
<rect width="285" height="227" fill="white"/>
</clipPath>
</defs>
</svg>
