<svg width="403" height="247" viewBox="0 0 403 247" fill="none" xmlns="http://www.w3.org/2000/svg">
<g clip-path="url(#clip0_22_93)">
<path d="M213.844 184.679C212.98 189.903 208.432 193.902 202.966 193.902C197.501 193.902 192.948 189.903 192.089 184.679H164.255V244.966H241.678V184.679L213.844 184.679Z" fill="#D9D9D9"/>
<path d="M173.253 244.742H165.602V246.093H173.253V244.742Z" fill="#B6B3C5"/>
<path d="M241 244.966H233.348V246.317H241V244.966Z" fill="#B6B3C5"/>
<path d="M358.672 186.255H47.2611C44.8797 186.255 42.9424 184.318 42.9424 181.938V4.31631C42.9424 1.93624 44.8797 0 47.2611 0H358.672C361.053 0 362.99 1.93624 362.99 4.31631V181.943C362.99 184.323 361.053 186.26 358.672 186.26L358.672 186.255Z" fill="#2F2E41"/>
<path d="M355.558 7.64746H50.8185V179.505H355.558V7.64746Z" fill="white"/>
<path d="M0 246.556C0 246.8 0.195188 247 0.444064 247H402.556C402.8 247 403 246.805 403 246.556C403 246.307 402.805 246.112 402.556 246.112H0.444064C0.200073 246.112 0 246.307 0 246.556Z" fill="#2F2E43"/>
<path d="M89.835 49.7471H81.6192C79.6462 49.7471 78.0414 48.1177 78.0414 46.1145V37.7728C78.0414 35.7695 79.6462 34.1401 81.6192 34.1401H89.835C91.808 34.1401 93.4128 35.7695 93.4128 37.7728V46.1145C93.4128 48.1177 91.808 49.7471 89.835 49.7471Z" fill="#D0202E"/>
<path d="M127.898 49.7471H119.682C117.709 49.7471 116.104 48.1177 116.104 46.1145V37.7728C116.104 35.7695 117.709 34.1401 119.682 34.1401H127.898C129.871 34.1401 131.475 35.7695 131.475 37.7728V46.1145C131.475 48.1177 129.871 49.7471 127.898 49.7471Z" fill="#D0202E"/>
<path d="M166.448 49.7471H158.232C156.259 49.7471 154.655 48.1177 154.655 46.1145V37.7728C154.655 35.7695 156.259 34.1401 158.232 34.1401H166.448C168.421 34.1401 170.026 35.7695 170.026 37.7728V46.1145C170.026 48.1177 168.421 49.7471 166.448 49.7471Z" fill="#D0202E"/>
<path d="M205.487 49.7471H197.271C195.298 49.7471 193.693 48.1177 193.693 46.1145V37.7728C193.693 35.7695 195.298 34.1401 197.271 34.1401H205.487C207.46 34.1401 209.065 35.7695 209.065 37.7728V46.1145C209.065 48.1177 207.46 49.7471 205.487 49.7471Z" fill="#D9D9D9"/>
<path d="M243.549 49.7471H235.334C233.361 49.7471 231.756 48.1177 231.756 46.1145V37.7728C231.756 35.7695 233.361 34.1401 235.334 34.1401H243.549C245.522 34.1401 247.127 35.7695 247.127 37.7728V46.1145C247.127 48.1177 245.522 49.7471 243.549 49.7471Z" fill="#D9D9D9"/>
<path d="M282.1 49.7471H273.884C271.911 49.7471 270.306 48.1177 270.306 46.1145V37.7728C270.306 35.7695 271.911 34.1401 273.884 34.1401H282.1C284.073 34.1401 285.678 35.7695 285.678 37.7728V46.1145C285.678 48.1177 284.073 49.7471 282.1 49.7471Z" fill="#D9D9D9"/>
<path d="M320.163 49.7471H311.947C309.974 49.7471 308.369 48.1177 308.369 46.1145V37.7728C308.369 35.7695 309.974 34.1401 311.947 34.1401H320.163C322.136 34.1401 323.74 35.7695 323.74 37.7728V46.1145C323.74 48.1177 322.136 49.7471 320.163 49.7471Z" fill="#D9D9D9"/>
<path d="M89.835 79.4979H81.6192C79.6462 79.4979 78.0414 77.8685 78.0414 75.8652V67.5235C78.0414 65.5202 79.6462 63.8909 81.6192 63.8909H89.835C91.808 63.8909 93.4128 65.5202 93.4128 67.5235V75.8652C93.4128 77.8685 91.808 79.4979 89.835 79.4979Z" fill="#D9D9D9"/>
<path d="M127.898 79.4979H119.682C117.709 79.4979 116.104 77.8685 116.104 75.8652V67.5235C116.104 65.5202 117.709 63.8909 119.682 63.8909H127.898C129.871 63.8909 131.475 65.5202 131.475 67.5235V75.8652C131.475 77.8685 129.871 79.4979 127.898 79.4979Z" fill="#D9D9D9"/>
<path d="M166.448 79.4979H158.232C156.259 79.4979 154.655 77.8685 154.655 75.8652V67.5235C154.655 65.5202 156.259 63.8909 158.232 63.8909H166.448C168.421 63.8909 170.026 65.5202 170.026 67.5235V75.8652C170.026 77.8685 168.421 79.4979 166.448 79.4979Z" fill="#D9D9D9"/>
<path d="M205.487 79.4979H197.271C195.298 79.4979 193.693 77.8685 193.693 75.8652V67.5235C193.693 65.5202 195.298 63.8909 197.271 63.8909H205.487C207.46 63.8909 209.065 65.5202 209.065 67.5235V75.8652C209.065 77.8685 207.46 79.4979 205.487 79.4979Z" fill="#D9D9D9"/>
<path d="M243.549 79.4979H235.334C233.361 79.4979 231.756 77.8685 231.756 75.8652V67.5235C231.756 65.5202 233.361 63.8909 235.334 63.8909H243.549C245.522 63.8909 247.127 65.5202 247.127 67.5235V75.8652C247.127 77.8685 245.522 79.4979 243.549 79.4979Z" fill="#D9D9D9"/>
<path d="M282.1 79.4979H273.884C271.911 79.4979 270.306 77.8685 270.306 75.8652V67.5235C270.306 65.5202 271.911 63.8909 273.884 63.8909H282.1C284.073 63.8909 285.678 65.5202 285.678 67.5235V75.8652C285.678 77.8685 284.073 79.4979 282.1 79.4979Z" fill="#D9D9D9"/>
<path d="M320.163 79.4979H311.947C309.974 79.4979 308.369 77.8685 308.369 75.8652V67.5235C308.369 65.5202 309.974 63.8909 311.947 63.8909H320.163C322.136 63.8909 323.74 65.5202 323.74 67.5235V75.8652C323.74 77.8685 322.136 79.4979 320.163 79.4979Z" fill="#D9D9D9"/>
<path d="M89.835 109.249H81.6192C79.6462 109.249 78.0414 107.619 78.0414 105.616V97.2744C78.0414 95.2711 79.6462 93.6417 81.6192 93.6417H89.835C91.808 93.6417 93.4128 95.2711 93.4128 97.2744V105.616C93.4128 107.619 91.808 109.249 89.835 109.249Z" fill="#D9D9D9"/>
<path d="M127.898 109.249H119.682C117.709 109.249 116.104 107.619 116.104 105.616V97.2744C116.104 95.2711 117.709 93.6417 119.682 93.6417H127.898C129.871 93.6417 131.475 95.2711 131.475 97.2744V105.616C131.475 107.619 129.871 109.249 127.898 109.249Z" fill="#D9D9D9"/>
<path d="M166.448 109.249H158.232C156.259 109.249 154.655 107.619 154.655 105.616V97.2744C154.655 95.2711 156.259 93.6417 158.232 93.6417H166.448C168.421 93.6417 170.026 95.2711 170.026 97.2744V105.616C170.026 107.619 168.421 109.249 166.448 109.249Z" fill="#D9D9D9"/>
<path d="M205.487 109.249H197.271C195.298 109.249 193.693 107.619 193.693 105.616V97.2744C193.693 95.2711 195.298 93.6417 197.271 93.6417H205.487C207.46 93.6417 209.065 95.2711 209.065 97.2744V105.616C209.065 107.619 207.46 109.249 205.487 109.249Z" fill="#D9D9D9"/>
<path d="M243.549 109.249H235.334C233.361 109.249 231.756 107.619 231.756 105.616V97.2744C231.756 95.2711 233.361 93.6417 235.334 93.6417H243.549C245.522 93.6417 247.127 95.2711 247.127 97.2744V105.616C247.127 107.619 245.522 109.249 243.549 109.249Z" fill="#D9D9D9"/>
<path d="M282.1 109.249H273.884C271.911 109.249 270.306 107.619 270.306 105.616V97.2744C270.306 95.2711 271.911 93.6417 273.884 93.6417H282.1C284.073 93.6417 285.678 95.2711 285.678 97.2744V105.616C285.678 107.619 284.073 109.249 282.1 109.249Z" fill="#D9D9D9"/>
<path d="M320.163 109.249H311.947C309.974 109.249 308.369 107.619 308.369 105.616V97.2744C308.369 95.2711 309.974 93.6417 311.947 93.6417H320.163C322.136 93.6417 323.74 95.2711 323.74 97.2744V105.616C323.74 107.619 322.136 109.249 320.163 109.249Z" fill="#D9D9D9"/>
<path d="M130.451 68.8653C132.338 68.8653 133.867 67.3368 133.867 65.4513C133.867 63.5657 132.338 62.0372 130.451 62.0372C128.564 62.0372 127.035 63.5657 127.035 65.4513C127.035 67.3368 128.564 68.8653 130.451 68.8653Z" fill="#FF6363"/>
</g>
<defs>
<clipPath id="clip0_22_93">
<rect width="403" height="247" fill="white"/>
</clipPath>
</defs>
</svg>
