<svg width="64" height="64" viewBox="0 0 64 64" fill="none" xmlns="http://www.w3.org/2000/svg">
<path fill-rule="evenodd" clip-rule="evenodd" d="M24.781 3.44771C25.2811 2.94763 25.9594 2.66667 26.6667 2.66667H48C52.4184 2.66667 56 6.2484 56 10.6667V18.6667C56 20.1394 54.8061 21.3333 53.3333 21.3333C51.8605 21.3333 50.6667 20.1394 50.6667 18.6667V10.6667C50.6667 9.19392 49.4728 8 48 8H29.3333V21.3333C29.3333 22.8061 28.1395 24 26.6667 24H13.3333V53.3333C13.3333 54.8061 14.5273 56 16 56H21.3333C22.8061 56 24 57.1939 24 58.6667C24 60.1395 22.8061 61.3333 21.3333 61.3333H16C11.5817 61.3333 8 57.7517 8 53.3333V21.3333C8 20.6261 8.28096 19.9478 8.78104 19.4477L24.781 3.44771ZM17.1046 18.6667H24V11.7712L17.1046 18.6667ZM50.6667 48C50.6667 46.5272 51.8605 45.3333 53.3333 45.3333H56C57.4728 45.3333 58.6667 46.5272 58.6667 48V58.6667C58.6667 60.1395 57.4728 61.3333 56 61.3333C54.5272 61.3333 53.3333 60.1395 53.3333 58.6667V50.6667C51.8605 50.6667 50.6667 49.4728 50.6667 48ZM34.6667 53.3333C34.6667 51.8605 35.8605 50.6667 37.3333 50.6667C38.8061 50.6667 40 51.8605 40 53.3333C40 54.8061 38.8061 56 37.3333 56C35.8605 56 34.6667 54.8061 34.6667 53.3333ZM37.3333 45.3333C32.9149 45.3333 29.3333 48.9149 29.3333 53.3333C29.3333 57.7517 32.9149 61.3333 37.3333 61.3333C41.7517 61.3333 45.3333 57.7517 45.3333 53.3333C45.3333 48.9149 41.7517 45.3333 37.3333 45.3333ZM53.3333 32C51.8605 32 50.6667 33.1939 50.6667 34.6667C50.6667 36.1395 51.8605 37.3333 53.3333 37.3333C54.8061 37.3333 56 36.1395 56 34.6667C56 33.1939 54.8061 32 53.3333 32ZM45.3333 34.6667C45.3333 30.2483 48.9149 26.6667 53.3333 26.6667C57.7517 26.6667 61.3333 30.2483 61.3333 34.6667C61.3333 39.0851 57.7517 42.6667 53.3333 42.6667C48.9149 42.6667 45.3333 39.0851 45.3333 34.6667ZM34.6667 26.6667C33.1939 26.6667 32 27.8605 32 29.3333C32 30.8061 33.1939 32 34.6667 32V40C34.6667 41.4728 35.8605 42.6667 37.3333 42.6667C38.8061 42.6667 40 41.4728 40 40V29.3333C40 27.8605 38.8061 26.6667 37.3333 26.6667H34.6667Z" fill="#FAFAFA"/>
</svg>
